<?xml version="1.0" encoding="UTF-8"?>
<!DOCTYPE svg PUBLIC "-//W3C//DTD SVG 1.1//EN" "http://www.w3.org/Graphics/SVG/1.1/DTD/svg11.dtd">
<svg xmlns="http://www.w3.org/2000/svg" xmlns:xlink="http://www.w3.org/1999/xlink" xmlns:saxon="http://saxon.sf.net/" xmlns:converter="java:com.oxygenxml.plantuml.svg.PlantumlToSVG" contentScriptType="application/ecmascript" contentStyleType="text/css" height="1634px" preserveAspectRatio="none" style="width:943px;height:1634px;" version="1.1" viewBox="0 0 943 1634" width="943px" zoomAndPan="magnify"><defs><filter height="300%" id="f7q90wnqpxt6v" width="300%" x="-1" y="-1"><feGaussianBlur result="blurOut" stdDeviation="2.0"></feGaussianBlur><feColorMatrix in="blurOut" result="blurOut2" type="matrix" values="0 0 0 0 0 0 0 0 0 0 0 0 0 0 0 0 0 0 .4 0"></feColorMatrix><feOffset dx="4.0" dy="4.0" in="blurOut2" result="blurOut3"></feOffset><feBlend in="SourceGraphic" in2="blurOut3" mode="normal"></feBlend></filter></defs><g><rect fill="#FEFECE" filter="url(#f7q90wnqpxt6v)" height="34.1328" rx="12.5" ry="12.5" style="stroke: #A80036; stroke-width: 1.5;" width="42" x="10" y="804.9258"></rect><text fill="#000000" font-family="sans-serif" font-size="12" lengthAdjust="spacingAndGlyphs" textLength="22" x="20" y="826.5273">LUX</text><rect fill="#FEFECE" filter="url(#f7q90wnqpxt6v)" height="34.1328" rx="12.5" ry="12.5" style="stroke: #A80036; stroke-width: 1.5;" width="94" x="102" y="47.0664"></rect><text fill="#000000" font-family="sans-serif" font-size="12" lengthAdjust="spacingAndGlyphs" textLength="74" x="112" y="68.668">DigitalObject</text><rect fill="#FEFECE" filter="url(#f7q90wnqpxt6v)" height="34.1328" rx="12.5" ry="12.5" style="stroke: #A80036; stroke-width: 1.5;" width="70" x="246" y="20"></rect><text fill="#000000" font-family="sans-serif" font-size="12" lengthAdjust="spacingAndGlyphs" textLength="50" x="256" y="41.6016">Datasets</text><rect fill="#FEFECE" filter="url(#f7q90wnqpxt6v)" height="34.1328" rx="12.5" ry="12.5" style="stroke: #A80036; stroke-width: 1.5;" width="97" x="366" y="20"></rect><text fill="#000000" font-family="sans-serif" font-size="12" lengthAdjust="spacingAndGlyphs" textLength="77" x="376" y="41.6016">Data Formats</text><rect fill="#FEFECE" filter="url(#f7q90wnqpxt6v)" height="34.1328" rx="12.5" ry="12.5" style="stroke: #A80036; stroke-width: 1.5;" width="102" x="513" y="20"></rect><text fill="#000000" font-family="sans-serif" font-size="12" lengthAdjust="spacingAndGlyphs" textLength="82" x="523" y="41.6016">Data and Files</text><rect fill="#FEFECE" filter="url(#f7q90wnqpxt6v)" height="34.1328" rx="12.5" ry="12.5" style="stroke: #A80036; stroke-width: 1.5;" width="38" x="665" y="20"></rect><text fill="#000000" font-family="sans-serif" font-size="12" lengthAdjust="spacingAndGlyphs" textLength="18" x="675" y="41.6016">GIS</text><path d="M615,37.0664 L625,37.0664 C640,37.0664 640,37.0664 655,37.0664 L665,37.0664 " fill="none" style="stroke: #A80036; stroke-width: 1.0;"></path><path d="M463,37.0664 L473,37.0664 C488,37.0664 488,37.0664 503,37.0664 L513,37.0664 " fill="none" style="stroke: #A80036; stroke-width: 1.0;"></path><path d="M316,37.0664 L326,37.0664 C341,37.0664 341,37.0664 356,37.0664 L366,37.0664 " fill="none" style="stroke: #A80036; stroke-width: 1.0;"></path><path d="M196,64.1328 L206,64.1328 C221,64.1328 221,37.0664 236,37.0664 L246,37.0664 " fill="none" style="stroke: #A80036; stroke-width: 1.0;"></path><rect fill="#FEFECE" filter="url(#f7q90wnqpxt6v)" height="34.1328" rx="12.5" ry="12.5" style="stroke: #A80036; stroke-width: 1.5;" width="193" x="246" y="74.1328"></rect><text fill="#000000" font-family="sans-serif" font-size="12" lengthAdjust="spacingAndGlyphs" textLength="173" x="256" y="95.7344">Software and Electronic Media</text><rect fill="#FEFECE" filter="url(#f7q90wnqpxt6v)" height="34.1328" rx="12.5" ry="12.5" style="stroke: #A80036; stroke-width: 1.5;" width="119" x="489" y="74.1328"></rect><text fill="#000000" font-family="sans-serif" font-size="12" lengthAdjust="spacingAndGlyphs" textLength="99" x="499" y="95.7344">Software Formats</text><rect fill="#FEFECE" filter="url(#f7q90wnqpxt6v)" height="34.1328" rx="12.5" ry="12.5" style="stroke: #A80036; stroke-width: 1.5;" width="143" x="658" y="74.1328"></rect><text fill="#000000" font-family="sans-serif" font-size="12" lengthAdjust="spacingAndGlyphs" textLength="123" x="668" y="95.7344">Software Applications</text><rect fill="#FEFECE" filter="url(#f7q90wnqpxt6v)" height="34.1328" rx="12.5" ry="12.5" style="stroke: #A80036; stroke-width: 1.5;" width="81" x="851" y="74.1328"></rect><text fill="#000000" font-family="sans-serif" font-size="12" lengthAdjust="spacingAndGlyphs" textLength="61" x="861" y="95.7344">Databases</text><path d="M801,91.1992 L811,91.1992 C826,91.1992 826,91.1992 841,91.1992 L851,91.1992 " fill="none" style="stroke: #A80036; stroke-width: 1.0;"></path><path d="M608,91.1992 L618,91.1992 C633,91.1992 633,91.1992 648,91.1992 L658,91.1992 " fill="none" style="stroke: #A80036; stroke-width: 1.0;"></path><path d="M439,91.1992 L449,91.1992 C464,91.1992 464,91.1992 479,91.1992 L489,91.1992 " fill="none" style="stroke: #A80036; stroke-width: 1.0;"></path><path d="M196,64.1328 L206,64.1328 C221,64.1328 221,91.1992 236,91.1992 L246,91.1992 " fill="none" style="stroke: #A80036; stroke-width: 1.0;"></path><path d="M52,821.9922 L62,821.9922 C77,821.9922 77,64.1328 92,64.1328 L102,64.1328 " fill="none" style="stroke: #A80036; stroke-width: 1.0;"></path><rect fill="#FEFECE" filter="url(#f7q90wnqpxt6v)" height="34.1328" rx="12.5" ry="12.5" style="stroke: #A80036; stroke-width: 1.5;" width="131" x="102" y="209.4648"></rect><text fill="#000000" font-family="sans-serif" font-size="12" lengthAdjust="spacingAndGlyphs" textLength="111" x="112" y="231.0664">HumanMadeObject</text><rect fill="#FEFECE" filter="url(#f7q90wnqpxt6v)" height="34.1328" rx="12.5" ry="12.5" style="stroke: #A80036; stroke-width: 1.5;" width="64" x="283" y="209.4648"></rect><text fill="#000000" font-family="sans-serif" font-size="12" lengthAdjust="spacingAndGlyphs" textLength="44" x="293" y="231.0664">Objects</text><rect fill="#FEFECE" filter="url(#f7q90wnqpxt6v)" height="34.1328" rx="12.5" ry="12.5" style="stroke: #A80036; stroke-width: 1.5;" width="108" x="397" y="209.4648"></rect><text fill="#000000" font-family="sans-serif" font-size="12" lengthAdjust="spacingAndGlyphs" textLength="88" x="407" y="231.0664">Object Formats</text><rect fill="#FEFECE" filter="url(#f7q90wnqpxt6v)" height="34.1328" rx="12.5" ry="12.5" style="stroke: #A80036; stroke-width: 1.5;" width="60" x="555" y="128.2656"></rect><text fill="#000000" font-family="sans-serif" font-size="12" lengthAdjust="spacingAndGlyphs" textLength="40" x="565" y="149.8672">Globes</text><path d="M505,226.5313 L515,226.5313 C530,226.5313 530,145.332 545,145.332 L555,145.332 " fill="none" style="stroke: #A80036; stroke-width: 1.0;"></path><rect fill="#FEFECE" filter="url(#f7q90wnqpxt6v)" height="34.1328" rx="12.5" ry="12.5" style="stroke: #A80036; stroke-width: 1.5;" width="41" x="555" y="182.3984"></rect><text fill="#000000" font-family="sans-serif" font-size="12" lengthAdjust="spacingAndGlyphs" textLength="21" x="565" y="204">Kits</text><path d="M505,226.5313 L515,226.5313 C530,226.5313 530,199.4648 545,199.4648 L555,199.4648 " fill="none" style="stroke: #A80036; stroke-width: 1.0;"></path><rect fill="#FEFECE" filter="url(#f7q90wnqpxt6v)" height="34.1328" rx="12.5" ry="12.5" style="stroke: #A80036; stroke-width: 1.5;" width="61" x="555" y="236.5313"></rect><text fill="#000000" font-family="sans-serif" font-size="12" lengthAdjust="spacingAndGlyphs" textLength="41" x="565" y="258.1328">Models</text><path d="M505,226.5313 L515,226.5313 C530,226.5313 530,253.5977 545,253.5977 L555,253.5977 " fill="none" style="stroke: #A80036; stroke-width: 1.0;"></path><rect fill="#FEFECE" filter="url(#f7q90wnqpxt6v)" height="34.1328" rx="12.5" ry="12.5" style="stroke: #A80036; stroke-width: 1.5;" width="55" x="555" y="290.6641"></rect><text fill="#000000" font-family="sans-serif" font-size="12" lengthAdjust="spacingAndGlyphs" textLength="35" x="565" y="312.2656">Realia</text><path d="M505,226.5313 L515,226.5313 C530,226.5313 530,307.7305 545,307.7305 L555,307.7305 " fill="none" style="stroke: #A80036; stroke-width: 1.0;"></path><path d="M347,226.5313 L357,226.5313 C372,226.5313 372,226.5313 387,226.5313 L397,226.5313 " fill="none" style="stroke: #A80036; stroke-width: 1.0;"></path><path d="M233,226.5313 L243,226.5313 C258,226.5313 258,226.5313 273,226.5313 L283,226.5313 " fill="none" style="stroke: #A80036; stroke-width: 1.0;"></path><path d="M52,821.9922 L62,821.9922 C77,821.9922 77,226.5313 92,226.5313 L102,226.5313 " fill="none" style="stroke: #A80036; stroke-width: 1.0;"></path><rect fill="#FEFECE" filter="url(#f7q90wnqpxt6v)" height="34.1328" rx="12.5" ry="12.5" style="stroke: #A80036; stroke-width: 1.5;" width="110" x="102" y="615.4609"></rect><text fill="#000000" font-family="sans-serif" font-size="12" lengthAdjust="spacingAndGlyphs" textLength="90" x="112" y="637.0625">LinguisticObject</text><rect fill="#FEFECE" filter="url(#f7q90wnqpxt6v)" height="34.1328" rx="12.5" ry="12.5" style="stroke: #A80036; stroke-width: 1.5;" width="53" x="262" y="371.8633"></rect><text fill="#000000" font-family="sans-serif" font-size="12" lengthAdjust="spacingAndGlyphs" textLength="33" x="272" y="393.4648">Audio</text><rect fill="#FEFECE" filter="url(#f7q90wnqpxt6v)" height="34.1328" rx="12.5" ry="12.5" style="stroke: #A80036; stroke-width: 1.5;" width="103" x="365" y="371.8633"></rect><text fill="#000000" font-family="sans-serif" font-size="12" lengthAdjust="spacingAndGlyphs" textLength="83" x="375" y="393.4648">Audio Formats</text><rect fill="#FEFECE" filter="url(#f7q90wnqpxt6v)" height="34.1328" rx="12.5" ry="12.5" style="stroke: #A80036; stroke-width: 1.5;" width="52" x="518" y="344.7969"></rect><text fill="#000000" font-family="sans-serif" font-size="12" lengthAdjust="spacingAndGlyphs" textLength="32" x="528" y="366.3984">Music</text><path d="M468,388.9297 L478,388.9297 C493,388.9297 493,361.8633 508,361.8633 L518,361.8633 " fill="none" style="stroke: #A80036; stroke-width: 1.0;"></path><rect fill="#FEFECE" filter="url(#f7q90wnqpxt6v)" height="34.1328" rx="12.5" ry="12.5" style="stroke: #A80036; stroke-width: 1.5;" width="55" x="518" y="398.9297"></rect><text fill="#000000" font-family="sans-serif" font-size="12" lengthAdjust="spacingAndGlyphs" textLength="35" x="528" y="420.5313">Sound</text><path d="M468,388.9297 L478,388.9297 C493,388.9297 493,415.9961 508,415.9961 L518,415.9961 " fill="none" style="stroke: #A80036; stroke-width: 1.0;"></path><path d="M315,388.9297 L325,388.9297 C340,388.9297 340,388.9297 355,388.9297 L365,388.9297 " fill="none" style="stroke: #A80036; stroke-width: 1.0;"></path><path d="M212,632.5273 L222,632.5273 C237,632.5273 237,388.9297 252,388.9297 L262,388.9297 " fill="none" style="stroke: #A80036; stroke-width: 1.0;"></path><rect fill="#FEFECE" filter="url(#f7q90wnqpxt6v)" height="34.1328" rx="12.5" ry="12.5" style="stroke: #A80036; stroke-width: 1.5;" width="105" x="262" y="507.1953"></rect><text fill="#000000" font-family="sans-serif" font-size="12" lengthAdjust="spacingAndGlyphs" textLength="85" x="272" y="528.7969">Moving Images</text><rect fill="#FEFECE" filter="url(#f7q90wnqpxt6v)" height="34.1328" rx="12.5" ry="12.5" style="stroke: #A80036; stroke-width: 1.5;" width="149" x="417" y="453.0625"></rect><text fill="#000000" font-family="sans-serif" font-size="12" lengthAdjust="spacingAndGlyphs" textLength="129" x="427" y="474.6641">Moving Image Formats</text><path d="M367,524.2617 L377,524.2617 C392,524.2617 392,470.1289 407,470.1289 L417,470.1289 " fill="none" style="stroke: #A80036; stroke-width: 1.0;"></path><rect fill="#FEFECE" filter="url(#f7q90wnqpxt6v)" height="34.1328" rx="12.5" ry="12.5" style="stroke: #A80036; stroke-width: 1.5;" width="43" x="417" y="507.1953"></rect><text fill="#000000" font-family="sans-serif" font-size="12" lengthAdjust="spacingAndGlyphs" textLength="23" x="427" y="528.7969">Film</text><path d="M367,524.2617 L377,524.2617 C392,524.2617 392,524.2617 407,524.2617 L417,524.2617 " fill="none" style="stroke: #A80036; stroke-width: 1.0;"></path><rect fill="#FEFECE" filter="url(#f7q90wnqpxt6v)" height="34.1328" rx="12.5" ry="12.5" style="stroke: #A80036; stroke-width: 1.5;" width="53" x="417" y="561.3281"></rect><text fill="#000000" font-family="sans-serif" font-size="12" lengthAdjust="spacingAndGlyphs" textLength="33" x="427" y="582.9297">Video</text><path d="M367,524.2617 L377,524.2617 C392,524.2617 392,578.3945 407,578.3945 L417,578.3945 " fill="none" style="stroke: #A80036; stroke-width: 1.0;"></path><path d="M212,632.5273 L222,632.5273 C237,632.5273 237,524.2617 252,524.2617 L262,524.2617 " fill="none" style="stroke: #A80036; stroke-width: 1.0;"></path><rect fill="#FEFECE" filter="url(#f7q90wnqpxt6v)" height="34.1328" rx="12.5" ry="12.5" style="stroke: #A80036; stroke-width: 1.5;" width="135" x="262" y="642.5273"></rect><text fill="#000000" font-family="sans-serif" font-size="12" lengthAdjust="spacingAndGlyphs" textLength="115" x="272" y="664.1289">Scores and Notation</text><rect fill="#FEFECE" filter="url(#f7q90wnqpxt6v)" height="34.1328" rx="12.5" ry="12.5" style="stroke: #A80036; stroke-width: 1.5;" width="118" x="447" y="642.5273"></rect><text fill="#000000" font-family="sans-serif" font-size="12" lengthAdjust="spacingAndGlyphs" textLength="98" x="457" y="664.1289">Notation Formats</text><rect fill="#FEFECE" filter="url(#f7q90wnqpxt6v)" height="34.1328" rx="12.5" ry="12.5" style="stroke: #A80036; stroke-width: 1.5;" width="129" x="615" y="615.4609"></rect><text fill="#000000" font-family="sans-serif" font-size="12" lengthAdjust="spacingAndGlyphs" textLength="109" x="625" y="637.0625">Notated Movement</text><path d="M565,659.5938 L575,659.5938 C590,659.5938 590,632.5273 605,632.5273 L615,632.5273 " fill="none" style="stroke: #A80036; stroke-width: 1.0;"></path><rect fill="#FEFECE" filter="url(#f7q90wnqpxt6v)" height="34.1328" rx="12.5" ry="12.5" style="stroke: #A80036; stroke-width: 1.5;" width="102" x="615" y="669.5938"></rect><text fill="#000000" font-family="sans-serif" font-size="12" lengthAdjust="spacingAndGlyphs" textLength="82" x="625" y="691.1953">Notated Music</text><path d="M565,659.5938 L575,659.5938 C590,659.5938 590,686.6602 605,686.6602 L615,686.6602 " fill="none" style="stroke: #A80036; stroke-width: 1.0;"></path><path d="M397,659.5938 L407,659.5938 C422,659.5938 422,659.5938 437,659.5938 L447,659.5938 " fill="none" style="stroke: #A80036; stroke-width: 1.0;"></path><path d="M212,632.5273 L222,632.5273 C237,632.5273 237,659.5938 252,659.5938 L262,659.5938 " fill="none" style="stroke: #A80036; stroke-width: 1.0;"></path><rect fill="#FEFECE" filter="url(#f7q90wnqpxt6v)" height="34.1328" rx="12.5" ry="12.5" style="stroke: #A80036; stroke-width: 1.5;" width="102" x="262" y="804.9258"></rect><text fill="#000000" font-family="sans-serif" font-size="12" lengthAdjust="spacingAndGlyphs" textLength="82" x="272" y="826.5273">Textual Works</text><rect fill="#FEFECE" filter="url(#f7q90wnqpxt6v)" height="34.1328" rx="12.5" ry="12.5" style="stroke: #A80036; stroke-width: 1.5;" width="113" x="414" y="804.9258"></rect><text fill="#000000" font-family="sans-serif" font-size="12" lengthAdjust="spacingAndGlyphs" textLength="93" x="424" y="826.5273">Textual Formats</text><rect fill="#FEFECE" filter="url(#f7q90wnqpxt6v)" height="34.1328" rx="12.5" ry="12.5" style="stroke: #A80036; stroke-width: 1.5;" width="54" x="577" y="723.7266"></rect><text fill="#000000" font-family="sans-serif" font-size="12" lengthAdjust="spacingAndGlyphs" textLength="34" x="587" y="745.3281">Books</text><rect fill="#FEFECE" filter="url(#f7q90wnqpxt6v)" height="34.1328" rx="12.5" ry="12.5" style="stroke: #A80036; stroke-width: 1.5;" width="61" x="681" y="723.7266"></rect><text fill="#000000" font-family="sans-serif" font-size="12" lengthAdjust="spacingAndGlyphs" textLength="41" x="691" y="745.3281">Atlases</text><path d="M631,740.793 L641,740.793 C656,740.793 656,740.793 671,740.793 L681,740.793 " fill="none" style="stroke: #A80036; stroke-width: 1.0;"></path><path d="M527,821.9922 L537,821.9922 C552,821.9922 552,740.793 567,740.793 L577,740.793 " fill="none" style="stroke: #A80036; stroke-width: 1.0;"></path><rect fill="#FEFECE" filter="url(#f7q90wnqpxt6v)" height="34.1328" rx="12.5" ry="12.5" style="stroke: #A80036; stroke-width: 1.5;" width="84" x="577" y="777.8594"></rect><text fill="#000000" font-family="sans-serif" font-size="12" lengthAdjust="spacingAndGlyphs" textLength="64" x="587" y="799.4609">Broadsides</text><path d="M527,821.9922 L537,821.9922 C552,821.9922 552,794.9258 567,794.9258 L577,794.9258 " fill="none" style="stroke: #A80036; stroke-width: 1.0;"></path><rect fill="#FEFECE" filter="url(#f7q90wnqpxt6v)" height="34.1328" rx="12.5" ry="12.5" style="stroke: #A80036; stroke-width: 1.5;" width="165" x="577" y="831.9922"></rect><text fill="#000000" font-family="sans-serif" font-size="12" lengthAdjust="spacingAndGlyphs" textLength="145" x="587" y="853.5938">Dissertations and Theses</text><path d="M527,821.9922 L537,821.9922 C552,821.9922 552,849.0586 567,849.0586 L577,849.0586 " fill="none" style="stroke: #A80036; stroke-width: 1.0;"></path><rect fill="#FEFECE" filter="url(#f7q90wnqpxt6v)" height="34.1328" rx="12.5" ry="12.5" style="stroke: #A80036; stroke-width: 1.5;" width="158" x="577" y="886.125"></rect><text fill="#000000" font-family="sans-serif" font-size="12" lengthAdjust="spacingAndGlyphs" textLength="138" x="587" y="907.7266">Journals and Periodicals</text><rect fill="#FEFECE" filter="url(#f7q90wnqpxt6v)" height="34.1328" rx="12.5" ry="12.5" style="stroke: #A80036; stroke-width: 1.5;" width="92" x="785" y="886.125"></rect><text fill="#000000" font-family="sans-serif" font-size="12" lengthAdjust="spacingAndGlyphs" textLength="72" x="795" y="907.7266">Newspapers</text><path d="M735,903.1914 L745,903.1914 C760,903.1914 760,903.1914 775,903.1914 L785,903.1914 " fill="none" style="stroke: #A80036; stroke-width: 1.0;"></path><path d="M527,821.9922 L537,821.9922 C552,821.9922 552,903.1914 567,903.1914 L577,903.1914 " fill="none" style="stroke: #A80036; stroke-width: 1.0;"></path><path d="M364,821.9922 L374,821.9922 C389,821.9922 389,821.9922 404,821.9922 L414,821.9922 " fill="none" style="stroke: #A80036; stroke-width: 1.0;"></path><path d="M212,632.5273 L222,632.5273 C237,632.5273 237,821.9922 252,821.9922 L262,821.9922 " fill="none" style="stroke: #A80036; stroke-width: 1.0;"></path><path d="M52,821.9922 L62,821.9922 C77,821.9922 77,632.5273 92,632.5273 L102,632.5273 " fill="none" style="stroke: #A80036; stroke-width: 1.0;"></path><rect fill="#FEFECE" filter="url(#f7q90wnqpxt6v)" height="34.1328" rx="12.5" ry="12.5" style="stroke: #A80036; stroke-width: 1.5;" width="37" x="102" y="940.2578"></rect><text fill="#000000" font-family="sans-serif" font-size="12" lengthAdjust="spacingAndGlyphs" textLength="17" x="112" y="961.8594">Set</text><rect fill="#FEFECE" filter="url(#f7q90wnqpxt6v)" height="34.1328" rx="12.5" ry="12.5" style="stroke: #A80036; stroke-width: 1.5;" width="81" x="189" y="940.2578"></rect><text fill="#000000" font-family="sans-serif" font-size="12" lengthAdjust="spacingAndGlyphs" textLength="61" x="199" y="961.8594">Collections</text><rect fill="#FEFECE" filter="url(#f7q90wnqpxt6v)" height="34.1328" rx="12.5" ry="12.5" style="stroke: #A80036; stroke-width: 1.5;" width="115" x="320" y="940.2578"></rect><text fill="#000000" font-family="sans-serif" font-size="12" lengthAdjust="spacingAndGlyphs" textLength="95" x="330" y="961.8594">Archival Formats</text><rect fill="#FEFECE" filter="url(#f7q90wnqpxt6v)" height="34.1328" rx="12.5" ry="12.5" style="stroke: #A80036; stroke-width: 1.5;" width="214" x="485" y="940.2578"></rect><text fill="#000000" font-family="sans-serif" font-size="12" lengthAdjust="spacingAndGlyphs" textLength="194" x="495" y="961.8594">Archival and Manuscript Materials</text><path d="M435,957.3242 L445,957.3242 C460,957.3242 460,957.3242 475,957.3242 L485,957.3242 " fill="none" style="stroke: #A80036; stroke-width: 1.0;"></path><path d="M270,957.3242 L280,957.3242 C295,957.3242 295,957.3242 310,957.3242 L320,957.3242 " fill="none" style="stroke: #A80036; stroke-width: 1.0;"></path><path d="M139,957.3242 L149,957.3242 C164,957.3242 164,957.3242 179,957.3242 L189,957.3242 " fill="none" style="stroke: #A80036; stroke-width: 1.0;"></path><path d="M52,821.9922 L62,821.9922 C77,821.9922 77,957.3242 92,957.3242 L102,957.3242 " fill="none" style="stroke: #A80036; stroke-width: 1.0;"></path><rect fill="#FEFECE" filter="url(#f7q90wnqpxt6v)" height="34.1328" rx="12.5" ry="12.5" style="stroke: #A80036; stroke-width: 1.5;" width="79" x="102" y="1292.1211"></rect><text fill="#000000" font-family="sans-serif" font-size="12" lengthAdjust="spacingAndGlyphs" textLength="59" x="112" y="1313.7227">VisualItem</text><rect fill="#FEFECE" filter="url(#f7q90wnqpxt6v)" height="34.1328" rx="12.5" ry="12.5" style="stroke: #A80036; stroke-width: 1.5;" width="91" x="231" y="1075.5898"></rect><text fill="#000000" font-family="sans-serif" font-size="12" lengthAdjust="spacingAndGlyphs" textLength="71" x="241" y="1097.1914">Cartography</text><rect fill="#FEFECE" filter="url(#f7q90wnqpxt6v)" height="34.1328" rx="12.5" ry="12.5" style="stroke: #A80036; stroke-width: 1.5;" width="144" x="372" y="1075.5898"></rect><text fill="#000000" font-family="sans-serif" font-size="12" lengthAdjust="spacingAndGlyphs" textLength="124" x="382" y="1097.1914">Cartographic Formats</text><rect fill="#FEFECE" filter="url(#f7q90wnqpxt6v)" height="34.1328" rx="12.5" ry="12.5" style="stroke: #A80036; stroke-width: 1.5;" width="61" x="566" y="994.3906"></rect><text fill="#000000" font-family="sans-serif" font-size="12" lengthAdjust="spacingAndGlyphs" textLength="41" x="576" y="1015.9922">Atlases</text><path d="M516,1092.6563 L526,1092.6563 C541,1092.6563 541,1011.457 556,1011.457 L566,1011.457 " fill="none" style="stroke: #A80036; stroke-width: 1.0;"></path><rect fill="#FEFECE" filter="url(#f7q90wnqpxt6v)" height="34.1328" rx="12.5" ry="12.5" style="stroke: #A80036; stroke-width: 1.5;" width="38" x="566" y="1048.5234"></rect><text fill="#000000" font-family="sans-serif" font-size="12" lengthAdjust="spacingAndGlyphs" textLength="18" x="576" y="1070.125">GIS</text><path d="M516,1092.6563 L526,1092.6563 C541,1092.6563 541,1065.5898 556,1065.5898 L566,1065.5898 " fill="none" style="stroke: #A80036; stroke-width: 1.0;"></path><rect fill="#FEFECE" filter="url(#f7q90wnqpxt6v)" height="34.1328" rx="12.5" ry="12.5" style="stroke: #A80036; stroke-width: 1.5;" width="60" x="566" y="1102.6563"></rect><text fill="#000000" font-family="sans-serif" font-size="12" lengthAdjust="spacingAndGlyphs" textLength="40" x="576" y="1124.2578">Globes</text><path d="M516,1092.6563 L526,1092.6563 C541,1092.6563 541,1119.7227 556,1119.7227 L566,1119.7227 " fill="none" style="stroke: #A80036; stroke-width: 1.0;"></path><rect fill="#FEFECE" filter="url(#f7q90wnqpxt6v)" height="34.1328" rx="12.5" ry="12.5" style="stroke: #A80036; stroke-width: 1.5;" width="51" x="566" y="1156.7891"></rect><text fill="#000000" font-family="sans-serif" font-size="12" lengthAdjust="spacingAndGlyphs" textLength="31" x="576" y="1178.3906">Maps</text><path d="M516,1092.6563 L526,1092.6563 C541,1092.6563 541,1173.8555 556,1173.8555 L566,1173.8555 " fill="none" style="stroke: #A80036; stroke-width: 1.0;"></path><path d="M322,1092.6563 L332,1092.6563 C347,1092.6563 347,1092.6563 362,1092.6563 L372,1092.6563 " fill="none" style="stroke: #A80036; stroke-width: 1.0;"></path><path d="M181,1309.1875 L191,1309.1875 C206,1309.1875 206,1092.6563 221,1092.6563 L231,1092.6563 " fill="none" style="stroke: #A80036; stroke-width: 1.0;"></path><rect fill="#FEFECE" filter="url(#f7q90wnqpxt6v)" height="34.1328" rx="12.5" ry="12.5" style="stroke: #A80036; stroke-width: 1.5;" width="93" x="231" y="1400.3867"></rect><text fill="#000000" font-family="sans-serif" font-size="12" lengthAdjust="spacingAndGlyphs" textLength="73" x="241" y="1421.9883">Visual Works</text><rect fill="#FEFECE" filter="url(#f7q90wnqpxt6v)" height="34.1328" rx="12.5" ry="12.5" style="stroke: #A80036; stroke-width: 1.5;" width="105" x="374" y="1400.3867"></rect><text fill="#000000" font-family="sans-serif" font-size="12" lengthAdjust="spacingAndGlyphs" textLength="85" x="384" y="1421.9883">Image Formats</text><rect fill="#FEFECE" filter="url(#f7q90wnqpxt6v)" height="34.1328" rx="12.5" ry="12.5" style="stroke: #A80036; stroke-width: 1.5;" width="68" x="529" y="1210.9219"></rect><text fill="#000000" font-family="sans-serif" font-size="12" lengthAdjust="spacingAndGlyphs" textLength="48" x="539" y="1232.5234">Collages</text><path d="M479,1417.4531 L489,1417.4531 C504,1417.4531 504,1227.9883 519,1227.9883 L529,1227.9883 " fill="none" style="stroke: #A80036; stroke-width: 1.0;"></path><rect fill="#FEFECE" filter="url(#f7q90wnqpxt6v)" height="34.1328" rx="12.5" ry="12.5" style="stroke: #A80036; stroke-width: 1.5;" width="73" x="529" y="1265.0547"></rect><text fill="#000000" font-family="sans-serif" font-size="12" lengthAdjust="spacingAndGlyphs" textLength="53" x="539" y="1286.6563">Drawings</text><path d="M479,1417.4531 L489,1417.4531 C504,1417.4531 504,1282.1211 519,1282.1211 L529,1282.1211 " fill="none" style="stroke: #A80036; stroke-width: 1.0;"></path><rect fill="#FEFECE" filter="url(#f7q90wnqpxt6v)" height="34.1328" rx="12.5" ry="12.5" style="stroke: #A80036; stroke-width: 1.5;" width="51" x="529" y="1319.1875"></rect><text fill="#000000" font-family="sans-serif" font-size="12" lengthAdjust="spacingAndGlyphs" textLength="31" x="539" y="1340.7891">Maps</text><path d="M479,1417.4531 L489,1417.4531 C504,1417.4531 504,1336.2539 519,1336.2539 L529,1336.2539 " fill="none" style="stroke: #A80036; stroke-width: 1.0;"></path><rect fill="#FEFECE" filter="url(#f7q90wnqpxt6v)" height="34.1328" rx="12.5" ry="12.5" style="stroke: #A80036; stroke-width: 1.5;" width="71" x="529" y="1373.3203"></rect><text fill="#000000" font-family="sans-serif" font-size="12" lengthAdjust="spacingAndGlyphs" textLength="51" x="539" y="1394.9219">Paintings</text><path d="M479,1417.4531 L489,1417.4531 C504,1417.4531 504,1390.3867 519,1390.3867 L529,1390.3867 " fill="none" style="stroke: #A80036; stroke-width: 1.0;"></path><rect fill="#FEFECE" filter="url(#f7q90wnqpxt6v)" height="34.1328" rx="12.5" ry="12.5" style="stroke: #A80036; stroke-width: 1.5;" width="92" x="529" y="1427.4531"></rect><text fill="#000000" font-family="sans-serif" font-size="12" lengthAdjust="spacingAndGlyphs" textLength="72" x="539" y="1449.0547">Photographs</text><path d="M479,1417.4531 L489,1417.4531 C504,1417.4531 504,1444.5195 519,1444.5195 L529,1444.5195 " fill="none" style="stroke: #A80036; stroke-width: 1.0;"></path><rect fill="#FEFECE" filter="url(#f7q90wnqpxt6v)" height="34.1328" rx="12.5" ry="12.5" style="stroke: #A80036; stroke-width: 1.5;" width="62" x="529" y="1481.5859"></rect><text fill="#000000" font-family="sans-serif" font-size="12" lengthAdjust="spacingAndGlyphs" textLength="42" x="539" y="1503.1875">Posters</text><path d="M479,1417.4531 L489,1417.4531 C504,1417.4531 504,1498.6523 519,1498.6523 L529,1498.6523 " fill="none" style="stroke: #A80036; stroke-width: 1.0;"></path><rect fill="#FEFECE" filter="url(#f7q90wnqpxt6v)" height="34.1328" rx="12.5" ry="12.5" style="stroke: #A80036; stroke-width: 1.5;" width="52" x="529" y="1535.7188"></rect><text fill="#000000" font-family="sans-serif" font-size="12" lengthAdjust="spacingAndGlyphs" textLength="32" x="539" y="1557.3203">Prints</text><path d="M479,1417.4531 L489,1417.4531 C504,1417.4531 504,1552.7852 519,1552.7852 L529,1552.7852 " fill="none" style="stroke: #A80036; stroke-width: 1.0;"></path><rect fill="#FEFECE" filter="url(#f7q90wnqpxt6v)" height="34.1328" rx="12.5" ry="12.5" style="stroke: #A80036; stroke-width: 1.5;" width="53" x="529" y="1589.8516"></rect><text fill="#000000" font-family="sans-serif" font-size="12" lengthAdjust="spacingAndGlyphs" textLength="33" x="539" y="1611.4531">Slides</text><path d="M479,1417.4531 L489,1417.4531 C504,1417.4531 504,1606.918 519,1606.918 L529,1606.918 " fill="none" style="stroke: #A80036; stroke-width: 1.0;"></path><path d="M324,1417.4531 L334,1417.4531 C349,1417.4531 349,1417.4531 364,1417.4531 L374,1417.4531 " fill="none" style="stroke: #A80036; stroke-width: 1.0;"></path><path d="M181,1309.1875 L191,1309.1875 C206,1309.1875 206,1417.4531 221,1417.4531 L231,1417.4531 " fill="none" style="stroke: #A80036; stroke-width: 1.0;"></path><path d="M52,821.9922 L62,821.9922 C77,821.9922 77,1309.1875 92,1309.1875 L102,1309.1875 " fill="none" style="stroke: #A80036; stroke-width: 1.0;"></path><!--
@startmindmap
* LUX
** DigitalObject
*** Datasets
**** Data Formats
***** Data and Files
****** GIS
*** Software and Electronic Media
**** Software Formats
***** Software Applications
****** Databases
** HumanMadeObject
*** Objects
**** Object Formats
***** Globes
***** Kits
***** Models
***** Realia
** LinguisticObject
*** Audio
**** Audio Formats
***** Music
***** Sound
*** Moving Images
**** Moving Image Formats
**** Film
**** Video
*** Scores and Notation
**** Notation Formats
***** Notated Movement
***** Notated Music
*** Textual Works
**** Textual Formats
***** Books
****** Atlases
***** Broadsides
***** Dissertations and Theses
***** Journals and Periodicals
****** Newspapers
** Set
*** Collections
**** Archival Formats
***** Archival and Manuscript Materials
** VisualItem
*** Cartography
**** Cartographic Formats
***** Atlases
***** GIS
***** Globes
***** Maps
*** Visual Works
**** Image Formats
***** Collages
***** Drawings
***** Maps
***** Paintings
***** Photographs
***** Posters
***** Prints
***** Slides
@endmindmap

PlantUML version 1.2019.08(Sat Jul 13 15:25:14 EDT 2019)
(APACHE source distribution)
Java Runtime: Java(TM) SE Runtime Environment
JVM: Java HotSpot(TM) 64-Bit Server VM
Java Version: 1.8.0_202-b08
Operating System: Mac OS X
OS Version: 10.16
Default Encoding: UTF-8
Language: en
Country: US
--></g></svg>