<?xml version="1.0" encoding="UTF-8" standalone="no"?><svg xmlns="http://www.w3.org/2000/svg" xmlns:xlink="http://www.w3.org/1999/xlink" contentStyleType="text/css" height="1992px" preserveAspectRatio="none" style="width:938px;height:1992px;background:#F9F9F9;" version="1.1" viewBox="0 0 938 1992" width="938px" zoomAndPan="magnify"><defs/><g><rect fill="#F1F1F1" height="36.2969" rx="3.5" ry="3.5" style="stroke:#181818;stroke-width:1.5;" width="55" x="10" y="977.0469"/><text fill="#000000" font-family="sans-serif" font-size="14" lengthAdjust="spacing" textLength="27" x="20" y="1000.042">LUX</text><rect fill="#F1F1F1" height="36.2969" rx="3.5" ry="3.5" style="stroke:#181818;stroke-width:1.5;" width="160" x="115" y="132.5938"/><text fill="#000000" font-family="sans-serif" font-size="14" lengthAdjust="spacing" textLength="136" x="125" y="155.5889">HumanMadeObject</text><rect fill="#F1F1F1" height="36.2969" rx="3.5" ry="3.5" style="stroke:#181818;stroke-width:1.5;" width="80" x="325" y="132.5938"/><text fill="#000000" font-family="sans-serif" font-size="14" lengthAdjust="spacing" textLength="56" x="335" y="155.5889">Objects</text><rect fill="#F1F1F1" height="36.2969" rx="3.5" ry="3.5" style="stroke:#181818;stroke-width:1.5;" width="70" x="455" y="20"/><a href="globes.md" target="_top" title="Globes format" xlink:actuate="onRequest" xlink:href="globes.md" xlink:show="new" xlink:title="Globes format" xlink:type="simple"><text fill="#0000FF" font-family="sans-serif" font-size="14" lengthAdjust="spacing" text-decoration="underline" textLength="50" x="465" y="42.9951">Globes</text></a><path d="M405,150.7422 L415,150.7422 C430,150.7422 430,38.1484 445,38.1484 L455,38.1484 " fill="none" style="stroke:#191919;stroke-width:1.0;"/><rect fill="#F1F1F1" height="36.2969" rx="3.5" ry="3.5" style="stroke:#181818;stroke-width:1.5;" width="48" x="455" y="76.2969"/><a href="kits.md" target="_top" title="Kits format" xlink:actuate="onRequest" xlink:href="kits.md" xlink:show="new" xlink:title="Kits format" xlink:type="simple"><text fill="#0000FF" font-family="sans-serif" font-size="14" lengthAdjust="spacing" text-decoration="underline" textLength="28" x="465" y="99.292">Kits</text></a><path d="M405,150.7422 L415,150.7422 C430,150.7422 430,94.4453 445,94.4453 L455,94.4453 " fill="none" style="stroke:#191919;stroke-width:1.0;"/><rect fill="#F1F1F1" height="36.2969" rx="3.5" ry="3.5" style="stroke:#181818;stroke-width:1.5;" width="74" x="455" y="132.5938"/><a href="models.md" target="_top" title="Models format" xlink:actuate="onRequest" xlink:href="models.md" xlink:show="new" xlink:title="Models format" xlink:type="simple"><text fill="#0000FF" font-family="sans-serif" font-size="14" lengthAdjust="spacing" text-decoration="underline" textLength="50" x="465" y="155.5889">Models</text></a><text fill="#000000" font-family="sans-serif" font-size="14" lengthAdjust="spacing" textLength="4" x="515" y="155.5889"> </text><path d="M405,150.7422 L415,150.7422 C430,150.7422 430,150.7422 445,150.7422 L455,150.7422 " fill="none" style="stroke:#191919;stroke-width:1.0;"/><rect fill="#F1F1F1" height="36.2969" rx="3.5" ry="3.5" style="stroke:#181818;stroke-width:1.5;" width="67" x="455" y="188.8906"/><a href="realia.md" target="_top" title="Realia format" xlink:actuate="onRequest" xlink:href="realia.md" xlink:show="new" xlink:title="Realia format" xlink:type="simple"><text fill="#0000FF" font-family="sans-serif" font-size="14" lengthAdjust="spacing" text-decoration="underline" textLength="43" x="465" y="211.8857">Realia</text></a><text fill="#000000" font-family="sans-serif" font-size="14" lengthAdjust="spacing" textLength="4" x="508" y="211.8857"> </text><path d="M405,150.7422 L415,150.7422 C430,150.7422 430,207.0391 445,207.0391 L455,207.0391 " fill="none" style="stroke:#191919;stroke-width:1.0;"/><rect fill="#F1F1F1" height="36.2969" rx="3.5" ry="3.5" style="stroke:#181818;stroke-width:1.5;" width="140" x="455" y="245.1875"/><a href="toysandgames.md" target="_top" title="Toys and Games format" xlink:actuate="onRequest" xlink:href="toysandgames.md" xlink:show="new" xlink:title="Toys and Games format" xlink:type="simple"><text fill="#0000FF" font-family="sans-serif" font-size="14" lengthAdjust="spacing" text-decoration="underline" textLength="116" x="465" y="268.1826">Toys and Games</text></a><text fill="#000000" font-family="sans-serif" font-size="14" lengthAdjust="spacing" textLength="4" x="581" y="268.1826"> </text><path d="M405,150.7422 L415,150.7422 C430,150.7422 430,263.3359 445,263.3359 L455,263.3359 " fill="none" style="stroke:#191919;stroke-width:1.0;"/><path d="M275,150.7422 L285,150.7422 C300,150.7422 300,150.7422 315,150.7422 L325,150.7422 " fill="none" style="stroke:#191919;stroke-width:1.0;"/><path d="M65,995.1953 L75,995.1953 C90,995.1953 90,150.7422 105,150.7422 L115,150.7422 " fill="none" style="stroke:#191919;stroke-width:1.0;"/><rect fill="#F1F1F1" height="36.2969" rx="3.5" ry="3.5" style="stroke:#181818;stroke-width:1.5;" width="141" x="115" y="667.4141"/><text fill="#000000" font-family="sans-serif" font-size="14" lengthAdjust="spacing" textLength="117" x="125" y="690.4092">LinguisticObject</text><rect fill="#F1F1F1" height="36.2969" rx="3.5" ry="3.5" style="stroke:#181818;stroke-width:1.5;" width="113" x="306" y="329.6328"/><text fill="#000000" font-family="sans-serif" font-size="14" lengthAdjust="spacing" textLength="89" x="316" y="352.6279">Audio Works</text><rect fill="#F1F1F1" height="36.2969" rx="3.5" ry="3.5" style="stroke:#181818;stroke-width:1.5;" width="63" x="469" y="301.4844"/><a href="music.md" target="_top" title="Music format" xlink:actuate="onRequest" xlink:href="music.md" xlink:show="new" xlink:title="Music format" xlink:type="simple"><text fill="#0000FF" font-family="sans-serif" font-size="14" lengthAdjust="spacing" text-decoration="underline" textLength="39" x="479" y="324.4795">Music</text></a><text fill="#000000" font-family="sans-serif" font-size="14" lengthAdjust="spacing" textLength="4" x="518" y="324.4795"> </text><path d="M419,347.7813 L429,347.7813 C444,347.7813 444,319.6328 459,319.6328 L469,319.6328 " fill="none" style="stroke:#191919;stroke-width:1.0;"/><rect fill="#F1F1F1" height="36.2969" rx="3.5" ry="3.5" style="stroke:#181818;stroke-width:1.5;" width="68" x="469" y="357.7813"/><a href="sound.md" target="_top" title="Sound format" xlink:actuate="onRequest" xlink:href="sound.md" xlink:show="new" xlink:title="Sound format" xlink:type="simple"><text fill="#0000FF" font-family="sans-serif" font-size="14" lengthAdjust="spacing" text-decoration="underline" textLength="44" x="479" y="380.7764">Sound</text></a><text fill="#000000" font-family="sans-serif" font-size="14" lengthAdjust="spacing" textLength="4" x="523" y="380.7764"> </text><path d="M419,347.7813 L429,347.7813 C444,347.7813 444,375.9297 459,375.9297 L469,375.9297 " fill="none" style="stroke:#191919;stroke-width:1.0;"/><path d="M256,685.5625 L266,685.5625 C281,685.5625 281,347.7813 296,347.7813 L306,347.7813 " fill="none" style="stroke:#191919;stroke-width:1.0;"/><rect fill="#F1F1F1" height="36.2969" rx="3.5" ry="3.5" style="stroke:#181818;stroke-width:1.5;" width="88" x="306" y="470.375"/><text fill="#000000" font-family="sans-serif" font-size="14" lengthAdjust="spacing" textLength="64" x="316" y="493.3701">Datasets</text><rect fill="#F1F1F1" height="36.2969" rx="3.5" ry="3.5" style="stroke:#181818;stroke-width:1.5;" width="124" x="444" y="470.375"/><a href="dataandfiles.md" target="_top" title="Data and Files format" xlink:actuate="onRequest" xlink:href="dataandfiles.md" xlink:show="new" xlink:title="Data and Files format" xlink:type="simple"><text fill="#0000FF" font-family="sans-serif" font-size="14" lengthAdjust="spacing" text-decoration="underline" textLength="100" x="454" y="493.3701">Data and Files</text></a><text fill="#000000" font-family="sans-serif" font-size="14" lengthAdjust="spacing" textLength="4" x="554" y="493.3701"> </text><rect fill="#F1F1F1" height="36.2969" rx="3.5" ry="3.5" style="stroke:#181818;stroke-width:1.5;" width="139" x="618" y="414.0781"/><a href="geospatialdata.md" target="_top" title="Geospatial Data format" xlink:actuate="onRequest" xlink:href="geospatialdata.md" xlink:show="new" xlink:title="Geospatial Data format" xlink:type="simple"><text fill="#0000FF" font-family="sans-serif" font-size="14" lengthAdjust="spacing" text-decoration="underline" textLength="115" x="628" y="437.0732">Geospatial Data</text></a><text fill="#000000" font-family="sans-serif" font-size="14" lengthAdjust="spacing" textLength="4" x="743" y="437.0732"> </text><path d="M568,488.5234 L578,488.5234 C593,488.5234 593,432.2266 608,432.2266 L618,432.2266 " fill="none" style="stroke:#191919;stroke-width:1.0;"/><rect fill="#F1F1F1" height="36.2969" rx="3.5" ry="3.5" style="stroke:#181818;stroke-width:1.5;" width="106" x="618" y="470.375"/><a href="imagedata.md" target="_top" title="Image Data format" xlink:actuate="onRequest" xlink:href="imagedata.md" xlink:show="new" xlink:title="Image Data format" xlink:type="simple"><text fill="#0000FF" font-family="sans-serif" font-size="14" lengthAdjust="spacing" text-decoration="underline" textLength="82" x="628" y="493.3701">Image Data</text></a><text fill="#000000" font-family="sans-serif" font-size="14" lengthAdjust="spacing" textLength="4" x="710" y="493.3701"> </text><path d="M568,488.5234 L578,488.5234 C593,488.5234 593,488.5234 608,488.5234 L618,488.5234 " fill="none" style="stroke:#191919;stroke-width:1.0;"/><rect fill="#F1F1F1" height="36.2969" rx="3.5" ry="3.5" style="stroke:#181818;stroke-width:1.5;" width="111" x="618" y="526.6719"/><a href="textualdata.md" target="_top" title="Textual Data format" xlink:actuate="onRequest" xlink:href="textualdata.md" xlink:show="new" xlink:title="Textual Data format" xlink:type="simple"><text fill="#0000FF" font-family="sans-serif" font-size="14" lengthAdjust="spacing" text-decoration="underline" textLength="91" x="628" y="549.667">Textual Data</text></a><path d="M568,488.5234 L578,488.5234 C593,488.5234 593,544.8203 608,544.8203 L618,544.8203 " fill="none" style="stroke:#191919;stroke-width:1.0;"/><path d="M394,488.5234 L404,488.5234 C419,488.5234 419,488.5234 434,488.5234 L444,488.5234 " fill="none" style="stroke:#191919;stroke-width:1.0;"/><path d="M256,685.5625 L266,685.5625 C281,685.5625 281,488.5234 296,488.5234 L306,488.5234 " fill="none" style="stroke:#191919;stroke-width:1.0;"/><rect fill="#F1F1F1" height="36.2969" rx="3.5" ry="3.5" style="stroke:#181818;stroke-width:1.5;" width="130" x="306" y="582.9688"/><text fill="#000000" font-family="sans-serif" font-size="14" lengthAdjust="spacing" textLength="106" x="316" y="605.9639">Moving Images</text><rect fill="#F1F1F1" height="36.2969" rx="3.5" ry="3.5" style="stroke:#181818;stroke-width:1.5;" width="136" x="486" y="582.9688"/><a href="motionpictures.md" target="_top" title="Motion Pictures format" xlink:actuate="onRequest" xlink:href="motionpictures.md" xlink:show="new" xlink:title="Motion Pictures format" xlink:type="simple"><text fill="#0000FF" font-family="sans-serif" font-size="14" lengthAdjust="spacing" text-decoration="underline" textLength="112" x="496" y="605.9639">Motion Pictures</text></a><text fill="#000000" font-family="sans-serif" font-size="14" lengthAdjust="spacing" textLength="4" x="608" y="605.9639"> </text><path d="M436,601.1172 L446,601.1172 C461,601.1172 461,601.1172 476,601.1172 L486,601.1172 " fill="none" style="stroke:#191919;stroke-width:1.0;"/><path d="M256,685.5625 L266,685.5625 C281,685.5625 281,601.1172 296,601.1172 L306,601.1172 " fill="none" style="stroke:#191919;stroke-width:1.0;"/><rect fill="#F1F1F1" height="36.2969" rx="3.5" ry="3.5" style="stroke:#181818;stroke-width:1.5;" width="169" x="306" y="667.4141"/><text fill="#000000" font-family="sans-serif" font-size="14" lengthAdjust="spacing" textLength="145" x="316" y="690.4092">Scores and Notation</text><rect fill="#F1F1F1" height="36.2969" rx="3.5" ry="3.5" style="stroke:#181818;stroke-width:1.5;" width="160" x="525" y="639.2656"/><a href="notatedmovement.md" target="_top" title="Notated Movement format" xlink:actuate="onRequest" xlink:href="notatedmovement.md" xlink:show="new" xlink:title="Notated Movement format" xlink:type="simple"><text fill="#0000FF" font-family="sans-serif" font-size="14" lengthAdjust="spacing" text-decoration="underline" textLength="140" x="535" y="662.2607">Notated Movement</text></a><path d="M475,685.5625 L485,685.5625 C500,685.5625 500,657.4141 515,657.4141 L525,657.4141 " fill="none" style="stroke:#191919;stroke-width:1.0;"/><rect fill="#F1F1F1" height="36.2969" rx="3.5" ry="3.5" style="stroke:#181818;stroke-width:1.5;" width="126" x="525" y="695.5625"/><a href="notatedmusic.md" target="_top" title="Notated Music format" xlink:actuate="onRequest" xlink:href="notatedmusic.md" xlink:show="new" xlink:title="Notated Music format" xlink:type="simple"><text fill="#0000FF" font-family="sans-serif" font-size="14" lengthAdjust="spacing" text-decoration="underline" textLength="102" x="535" y="718.5576">Notated Music</text></a><text fill="#000000" font-family="sans-serif" font-size="14" lengthAdjust="spacing" textLength="4" x="637" y="718.5576"> </text><path d="M475,685.5625 L485,685.5625 C500,685.5625 500,713.7109 515,713.7109 L525,713.7109 " fill="none" style="stroke:#191919;stroke-width:1.0;"/><path d="M256,685.5625 L266,685.5625 C281,685.5625 281,685.5625 296,685.5625 L306,685.5625 " fill="none" style="stroke:#191919;stroke-width:1.0;"/><rect fill="#F1F1F1" height="36.2969" rx="3.5" ry="3.5" style="stroke:#181818;stroke-width:1.5;" width="242" x="306" y="751.8594"/><text fill="#000000" font-family="sans-serif" font-size="14" lengthAdjust="spacing" textLength="218" x="316" y="774.8545">Software and Electronic Media</text><rect fill="#F1F1F1" height="36.2969" rx="3.5" ry="3.5" style="stroke:#181818;stroke-width:1.5;" width="183" x="598" y="751.8594"/><a href="softwareapplications.md" target="_top" title="Software Applications format" xlink:actuate="onRequest" xlink:href="softwareapplications.md" xlink:show="new" xlink:title="Software Applications format" xlink:type="simple"><text fill="#0000FF" font-family="sans-serif" font-size="14" lengthAdjust="spacing" text-decoration="underline" textLength="159" x="608" y="774.8545">Software Applications</text></a><text fill="#000000" font-family="sans-serif" font-size="14" lengthAdjust="spacing" textLength="4" x="767" y="774.8545"> </text><rect fill="#F1F1F1" height="36.2969" rx="3.5" ry="3.5" style="stroke:#181818;stroke-width:1.5;" width="95" x="831" y="751.8594"/><a href="databases.md" target="_top" title="Databases format" xlink:actuate="onRequest" xlink:href="databases.md" xlink:show="new" xlink:title="Databases format" xlink:type="simple"><text fill="#0000FF" font-family="sans-serif" font-size="14" lengthAdjust="spacing" text-decoration="underline" textLength="75" x="841" y="774.8545">Databases</text></a><path d="M781,770.0078 L791,770.0078 C806,770.0078 806,770.0078 821,770.0078 L831,770.0078 " fill="none" style="stroke:#191919;stroke-width:1.0;"/><path d="M548,770.0078 L558,770.0078 C573,770.0078 573,770.0078 588,770.0078 L598,770.0078 " fill="none" style="stroke:#191919;stroke-width:1.0;"/><path d="M256,685.5625 L266,685.5625 C281,685.5625 281,770.0078 296,770.0078 L306,770.0078 " fill="none" style="stroke:#191919;stroke-width:1.0;"/><rect fill="#F1F1F1" height="36.2969" rx="3.5" ry="3.5" style="stroke:#181818;stroke-width:1.5;" width="126" x="306" y="920.75"/><text fill="#000000" font-family="sans-serif" font-size="14" lengthAdjust="spacing" textLength="102" x="316" y="943.7451">Textual Works</text><rect fill="#F1F1F1" height="36.2969" rx="3.5" ry="3.5" style="stroke:#181818;stroke-width:1.5;" width="68" x="482" y="808.1563"/><a href="books.md" target="_top" title="Books format" xlink:actuate="onRequest" xlink:href="books.md" xlink:show="new" xlink:title="Books format" xlink:type="simple"><text fill="#0000FF" font-family="sans-serif" font-size="14" lengthAdjust="spacing" text-decoration="underline" textLength="44" x="492" y="831.1514">Books</text></a><text fill="#000000" font-family="sans-serif" font-size="14" lengthAdjust="spacing" textLength="4" x="536" y="831.1514"> </text><rect fill="#F1F1F1" height="36.2969" rx="3.5" ry="3.5" style="stroke:#181818;stroke-width:1.5;" width="76" x="600" y="808.1563"/><a href="atlases.md" target="_top" title="Atlases format" xlink:actuate="onRequest" xlink:href="atlases.md" xlink:show="new" xlink:title="Atlases format" xlink:type="simple"><text fill="#0000FF" font-family="sans-serif" font-size="14" lengthAdjust="spacing" text-decoration="underline" textLength="52" x="610" y="831.1514">Atlases</text></a><text fill="#000000" font-family="sans-serif" font-size="14" lengthAdjust="spacing" textLength="4" x="662" y="831.1514"> </text><path d="M550,826.3047 L560,826.3047 C575,826.3047 575,826.3047 590,826.3047 L600,826.3047 " fill="none" style="stroke:#191919;stroke-width:1.0;"/><path d="M432,938.8984 L442,938.8984 C457,938.8984 457,826.3047 472,826.3047 L482,826.3047 " fill="none" style="stroke:#191919;stroke-width:1.0;"/><rect fill="#F1F1F1" height="36.2969" rx="3.5" ry="3.5" style="stroke:#181818;stroke-width:1.5;" width="102" x="482" y="864.4531"/><a href="broadsides.md" target="_top" title="Broadsides format" xlink:actuate="onRequest" xlink:href="broadsides.md" xlink:show="new" xlink:title="Broadsides format" xlink:type="simple"><text fill="#0000FF" font-family="sans-serif" font-size="14" lengthAdjust="spacing" text-decoration="underline" textLength="78" x="492" y="887.4482">Broadsides</text></a><text fill="#000000" font-family="sans-serif" font-size="14" lengthAdjust="spacing" textLength="4" x="570" y="887.4482"> </text><path d="M432,938.8984 L442,938.8984 C457,938.8984 457,882.6016 472,882.6016 L482,882.6016 " fill="none" style="stroke:#191919;stroke-width:1.0;"/><rect fill="#F1F1F1" height="36.2969" rx="3.5" ry="3.5" style="stroke:#181818;stroke-width:1.5;" width="199" x="482" y="920.75"/><a href="dissertationsandtheses.md" target="_top" title="Dissertations and Theses format" xlink:actuate="onRequest" xlink:href="dissertationsandtheses.md" xlink:show="new" xlink:title="Dissertations and Theses format" xlink:type="simple"><text fill="#0000FF" font-family="sans-serif" font-size="14" lengthAdjust="spacing" text-decoration="underline" textLength="179" x="492" y="943.7451">Dissertations and Theses</text></a><path d="M432,938.8984 L442,938.8984 C457,938.8984 457,938.8984 472,938.8984 L482,938.8984 " fill="none" style="stroke:#191919;stroke-width:1.0;"/><rect fill="#F1F1F1" height="36.2969" rx="3.5" ry="3.5" style="stroke:#181818;stroke-width:1.5;" width="190" x="482" y="977.0469"/><a href="journalsandperiodicals.md" target="_top" title="Journals and Periodicals format" xlink:actuate="onRequest" xlink:href="journalsandperiodicals.md" xlink:show="new" xlink:title="Journals and Periodicals format" xlink:type="simple"><text fill="#0000FF" font-family="sans-serif" font-size="14" lengthAdjust="spacing" text-decoration="underline" textLength="166" x="492" y="1000.042">Journals and Periodicals</text></a><text fill="#000000" font-family="sans-serif" font-size="14" lengthAdjust="spacing" textLength="4" x="658" y="1000.042"> </text><rect fill="#F1F1F1" height="36.2969" rx="3.5" ry="3.5" style="stroke:#181818;stroke-width:1.5;" width="111" x="722" y="977.0469"/><a href="newspapers.md" target="_top" title="Newspapers format" xlink:actuate="onRequest" xlink:href="newspapers.md" xlink:show="new" xlink:title="Newspapers format" xlink:type="simple"><text fill="#0000FF" font-family="sans-serif" font-size="14" lengthAdjust="spacing" text-decoration="underline" textLength="87" x="732" y="1000.042">Newspapers</text></a><text fill="#000000" font-family="sans-serif" font-size="14" lengthAdjust="spacing" textLength="4" x="819" y="1000.042"> </text><path d="M672,995.1953 L682,995.1953 C697,995.1953 697,995.1953 712,995.1953 L722,995.1953 " fill="none" style="stroke:#191919;stroke-width:1.0;"/><path d="M432,938.8984 L442,938.8984 C457,938.8984 457,995.1953 472,995.1953 L482,995.1953 " fill="none" style="stroke:#191919;stroke-width:1.0;"/><rect fill="#F1F1F1" height="36.2969" rx="3.5" ry="3.5" style="stroke:#181818;stroke-width:1.5;" width="115" x="482" y="1033.3438"/><a href="textualdata.md" target="_top" title="Textual Data format" xlink:actuate="onRequest" xlink:href="textualdata.md" xlink:show="new" xlink:title="Textual Data format" xlink:type="simple"><text fill="#0000FF" font-family="sans-serif" font-size="14" lengthAdjust="spacing" text-decoration="underline" textLength="91" x="492" y="1056.3389">Textual Data</text></a><text fill="#000000" font-family="sans-serif" font-size="14" lengthAdjust="spacing" textLength="4" x="583" y="1056.3389"> </text><path d="M432,938.8984 L442,938.8984 C457,938.8984 457,1051.4922 472,1051.4922 L482,1051.4922 " fill="none" style="stroke:#191919;stroke-width:1.0;"/><path d="M256,685.5625 L266,685.5625 C281,685.5625 281,938.8984 296,938.8984 L306,938.8984 " fill="none" style="stroke:#191919;stroke-width:1.0;"/><path d="M65,995.1953 L75,995.1953 C90,995.1953 90,685.5625 105,685.5625 L115,685.5625 " fill="none" style="stroke:#191919;stroke-width:1.0;"/><rect fill="#F1F1F1" height="36.2969" rx="3.5" ry="3.5" style="stroke:#181818;stroke-width:1.5;" width="49" x="115" y="1117.7891"/><text fill="#000000" font-family="sans-serif" font-size="14" lengthAdjust="spacing" textLength="25" x="125" y="1140.7842">Set</text><rect fill="#F1F1F1" height="36.2969" rx="3.5" ry="3.5" style="stroke:#181818;stroke-width:1.5;" width="104" x="214" y="1117.7891"/><text fill="#000000" font-family="sans-serif" font-size="14" lengthAdjust="spacing" textLength="80" x="224" y="1140.7842">Collections</text><rect fill="#F1F1F1" height="36.2969" rx="3.5" ry="3.5" style="stroke:#181818;stroke-width:1.5;" width="263" x="368" y="1089.6406"/><a href="archivalandmanuscriptmaterials.md" target="_top" title="Archival and Manuscript Materials format" xlink:actuate="onRequest" xlink:href="archivalandmanuscriptmaterials.md" xlink:show="new" xlink:title="Archival and Manuscript Materials format" xlink:type="simple"><text fill="#0000FF" font-family="sans-serif" font-size="14" lengthAdjust="spacing" text-decoration="underline" textLength="239" x="378" y="1112.6357">Archival and Manuscript Materials</text></a><text fill="#000000" font-family="sans-serif" font-size="14" lengthAdjust="spacing" textLength="4" x="617" y="1112.6357"> </text><path d="M318,1135.9375 L328,1135.9375 C343,1135.9375 343,1107.7891 358,1107.7891 L368,1107.7891 " fill="none" style="stroke:#191919;stroke-width:1.0;"/><rect fill="#F1F1F1" height="36.2969" rx="3.5" ry="3.5" style="stroke:#181818;stroke-width:1.5;" width="52" x="368" y="1145.9375"/><a href="kits.md" target="_top" title="Kits format" xlink:actuate="onRequest" xlink:href="kits.md" xlink:show="new" xlink:title="Kits format" xlink:type="simple"><text fill="#0000FF" font-family="sans-serif" font-size="14" lengthAdjust="spacing" text-decoration="underline" textLength="28" x="378" y="1168.9326">Kits</text></a><text fill="#000000" font-family="sans-serif" font-size="14" lengthAdjust="spacing" textLength="4" x="406" y="1168.9326"> </text><path d="M318,1135.9375 L328,1135.9375 C343,1135.9375 343,1164.0859 358,1164.0859 L368,1164.0859 " fill="none" style="stroke:#191919;stroke-width:1.0;"/><path d="M164,1135.9375 L174,1135.9375 C189,1135.9375 189,1135.9375 204,1135.9375 L214,1135.9375 " fill="none" style="stroke:#191919;stroke-width:1.0;"/><path d="M65,995.1953 L75,995.1953 C90,995.1953 90,1135.9375 105,1135.9375 L115,1135.9375 " fill="none" style="stroke:#191919;stroke-width:1.0;"/><rect fill="#F1F1F1" height="36.2969" rx="3.5" ry="3.5" style="stroke:#181818;stroke-width:1.5;" width="99" x="115" y="1568.1641"/><text fill="#000000" font-family="sans-serif" font-size="14" lengthAdjust="spacing" textLength="75" x="125" y="1591.1592">VisualItem</text><rect fill="#F1F1F1" height="36.2969" rx="3.5" ry="3.5" style="stroke:#181818;stroke-width:1.5;" width="167" x="264" y="1286.6797"/><text fill="#000000" font-family="sans-serif" font-size="14" lengthAdjust="spacing" textLength="143" x="274" y="1309.6748">Cartographic Works</text><rect fill="#F1F1F1" height="36.2969" rx="3.5" ry="3.5" style="stroke:#181818;stroke-width:1.5;" width="76" x="481" y="1202.2344"/><a href="atlases.md" target="_top" title="Atlases format" xlink:actuate="onRequest" xlink:href="atlases.md" xlink:show="new" xlink:title="Atlases format" xlink:type="simple"><text fill="#0000FF" font-family="sans-serif" font-size="14" lengthAdjust="spacing" text-decoration="underline" textLength="52" x="491" y="1225.2295">Atlases</text></a><text fill="#000000" font-family="sans-serif" font-size="14" lengthAdjust="spacing" textLength="4" x="543" y="1225.2295"> </text><path d="M431,1304.8281 L441,1304.8281 C456,1304.8281 456,1220.3828 471,1220.3828 L481,1220.3828 " fill="none" style="stroke:#191919;stroke-width:1.0;"/><rect fill="#F1F1F1" height="36.2969" rx="3.5" ry="3.5" style="stroke:#181818;stroke-width:1.5;" width="139" x="481" y="1258.5313"/><a href="geospatialdata.md" target="_top" title="Geospatial Data format" xlink:actuate="onRequest" xlink:href="geospatialdata.md" xlink:show="new" xlink:title="Geospatial Data format" xlink:type="simple"><text fill="#0000FF" font-family="sans-serif" font-size="14" lengthAdjust="spacing" text-decoration="underline" textLength="115" x="491" y="1281.5264">Geospatial Data</text></a><text fill="#000000" font-family="sans-serif" font-size="14" lengthAdjust="spacing" textLength="4" x="606" y="1281.5264"> </text><path d="M431,1304.8281 L441,1304.8281 C456,1304.8281 456,1276.6797 471,1276.6797 L481,1276.6797 " fill="none" style="stroke:#191919;stroke-width:1.0;"/><rect fill="#F1F1F1" height="36.2969" rx="3.5" ry="3.5" style="stroke:#181818;stroke-width:1.5;" width="74" x="481" y="1314.8281"/><a href="globes.md" target="_top" title="Globes format" xlink:actuate="onRequest" xlink:href="globes.md" xlink:show="new" xlink:title="Globes format" xlink:type="simple"><text fill="#0000FF" font-family="sans-serif" font-size="14" lengthAdjust="spacing" text-decoration="underline" textLength="50" x="491" y="1337.8232">Globes</text></a><text fill="#000000" font-family="sans-serif" font-size="14" lengthAdjust="spacing" textLength="4" x="541" y="1337.8232"> </text><path d="M431,1304.8281 L441,1304.8281 C456,1304.8281 456,1332.9766 471,1332.9766 L481,1332.9766 " fill="none" style="stroke:#191919;stroke-width:1.0;"/><rect fill="#F1F1F1" height="36.2969" rx="3.5" ry="3.5" style="stroke:#181818;stroke-width:1.5;" width="61" x="481" y="1371.125"/><a href="maps.md" target="_top" title="Maps format" xlink:actuate="onRequest" xlink:href="maps.md" xlink:show="new" xlink:title="Maps format" xlink:type="simple"><text fill="#0000FF" font-family="sans-serif" font-size="14" lengthAdjust="spacing" text-decoration="underline" textLength="37" x="491" y="1394.1201">Maps</text></a><text fill="#000000" font-family="sans-serif" font-size="14" lengthAdjust="spacing" textLength="4" x="528" y="1394.1201"> </text><path d="M431,1304.8281 L441,1304.8281 C456,1304.8281 456,1389.2734 471,1389.2734 L481,1389.2734 " fill="none" style="stroke:#191919;stroke-width:1.0;"/><path d="M214,1586.3125 L224,1586.3125 C239,1586.3125 239,1304.8281 254,1304.8281 L264,1304.8281 " fill="none" style="stroke:#191919;stroke-width:1.0;"/><rect fill="#F1F1F1" height="36.2969" rx="3.5" ry="3.5" style="stroke:#181818;stroke-width:1.5;" width="114" x="264" y="1680.7578"/><text fill="#000000" font-family="sans-serif" font-size="14" lengthAdjust="spacing" textLength="90" x="274" y="1703.7529">Visual Works</text><rect fill="#F1F1F1" height="36.2969" rx="3.5" ry="3.5" style="stroke:#181818;stroke-width:1.5;" width="84" x="428" y="1427.4219"/><a href="collages.md" target="_top" title="Collages format" xlink:actuate="onRequest" xlink:href="collages.md" xlink:show="new" xlink:title="Collages format" xlink:type="simple"><text fill="#0000FF" font-family="sans-serif" font-size="14" lengthAdjust="spacing" text-decoration="underline" textLength="60" x="438" y="1450.417">Collages</text></a><text fill="#000000" font-family="sans-serif" font-size="14" lengthAdjust="spacing" textLength="4" x="498" y="1450.417"> </text><path d="M378,1698.9063 L388,1698.9063 C403,1698.9063 403,1445.5703 418,1445.5703 L428,1445.5703 " fill="none" style="stroke:#191919;stroke-width:1.0;"/><rect fill="#F1F1F1" height="36.2969" rx="3.5" ry="3.5" style="stroke:#181818;stroke-width:1.5;" width="89" x="428" y="1483.7188"/><a href="drawings.md" target="_top" title="Drawings format" xlink:actuate="onRequest" xlink:href="drawings.md" xlink:show="new" xlink:title="Drawings format" xlink:type="simple"><text fill="#0000FF" font-family="sans-serif" font-size="14" lengthAdjust="spacing" text-decoration="underline" textLength="65" x="438" y="1506.7139">Drawings</text></a><text fill="#000000" font-family="sans-serif" font-size="14" lengthAdjust="spacing" textLength="4" x="503" y="1506.7139"> </text><path d="M378,1698.9063 L388,1698.9063 C403,1698.9063 403,1501.8672 418,1501.8672 L428,1501.8672 " fill="none" style="stroke:#191919;stroke-width:1.0;"/><rect fill="#F1F1F1" height="36.2969" rx="3.5" ry="3.5" style="stroke:#181818;stroke-width:1.5;" width="106" x="428" y="1540.0156"/><a href="imagedata.md" target="_top" title="Image Data format" xlink:actuate="onRequest" xlink:href="imagedata.md" xlink:show="new" xlink:title="Image Data format" xlink:type="simple"><text fill="#0000FF" font-family="sans-serif" font-size="14" lengthAdjust="spacing" text-decoration="underline" textLength="82" x="438" y="1563.0107">Image Data</text></a><text fill="#000000" font-family="sans-serif" font-size="14" lengthAdjust="spacing" textLength="4" x="520" y="1563.0107"> </text><path d="M378,1698.9063 L388,1698.9063 C403,1698.9063 403,1558.1641 418,1558.1641 L428,1558.1641 " fill="none" style="stroke:#191919;stroke-width:1.0;"/><rect fill="#F1F1F1" height="36.2969" rx="3.5" ry="3.5" style="stroke:#181818;stroke-width:1.5;" width="61" x="428" y="1596.3125"/><a href="maps.md" target="_top" title="Maps format" xlink:actuate="onRequest" xlink:href="maps.md" xlink:show="new" xlink:title="Maps format" xlink:type="simple"><text fill="#0000FF" font-family="sans-serif" font-size="14" lengthAdjust="spacing" text-decoration="underline" textLength="37" x="438" y="1619.3076">Maps</text></a><text fill="#000000" font-family="sans-serif" font-size="14" lengthAdjust="spacing" textLength="4" x="475" y="1619.3076"> </text><path d="M378,1698.9063 L388,1698.9063 C403,1698.9063 403,1614.4609 418,1614.4609 L428,1614.4609 " fill="none" style="stroke:#191919;stroke-width:1.0;"/><rect fill="#F1F1F1" height="36.2969" rx="3.5" ry="3.5" style="stroke:#181818;stroke-width:1.5;" width="90" x="428" y="1652.6094"/><a href="paintings.md" target="_top" title="Paintings format" xlink:actuate="onRequest" xlink:href="paintings.md" xlink:show="new" xlink:title="Paintings format" xlink:type="simple"><text fill="#0000FF" font-family="sans-serif" font-size="14" lengthAdjust="spacing" text-decoration="underline" textLength="66" x="438" y="1675.6045">Paintings</text></a><text fill="#000000" font-family="sans-serif" font-size="14" lengthAdjust="spacing" textLength="4" x="504" y="1675.6045"> </text><path d="M378,1698.9063 L388,1698.9063 C403,1698.9063 403,1670.7578 418,1670.7578 L428,1670.7578 " fill="none" style="stroke:#191919;stroke-width:1.0;"/><rect fill="#F1F1F1" height="36.2969" rx="3.5" ry="3.5" style="stroke:#181818;stroke-width:1.5;" width="116" x="428" y="1708.9063"/><a href="photographs.md" target="_top" title="Photographs format" xlink:actuate="onRequest" xlink:href="photographs.md" xlink:show="new" xlink:title="Photographs format" xlink:type="simple"><text fill="#0000FF" font-family="sans-serif" font-size="14" lengthAdjust="spacing" text-decoration="underline" textLength="92" x="438" y="1731.9014">Photographs</text></a><text fill="#000000" font-family="sans-serif" font-size="14" lengthAdjust="spacing" textLength="4" x="530" y="1731.9014"> </text><path d="M378,1698.9063 L388,1698.9063 C403,1698.9063 403,1727.0547 418,1727.0547 L428,1727.0547 " fill="none" style="stroke:#191919;stroke-width:1.0;"/><rect fill="#F1F1F1" height="36.2969" rx="3.5" ry="3.5" style="stroke:#181818;stroke-width:1.5;" width="82" x="428" y="1765.2031"/><a href="pictures.md" target="_top" title="Pictures format" xlink:actuate="onRequest" xlink:href="pictures.md" xlink:show="new" xlink:title="Pictures format" xlink:type="simple"><text fill="#0000FF" font-family="sans-serif" font-size="14" lengthAdjust="spacing" text-decoration="underline" textLength="58" x="438" y="1788.1982">Pictures</text></a><text fill="#000000" font-family="sans-serif" font-size="14" lengthAdjust="spacing" textLength="4" x="496" y="1788.1982"> </text><path d="M378,1698.9063 L388,1698.9063 C403,1698.9063 403,1783.3516 418,1783.3516 L428,1783.3516 " fill="none" style="stroke:#191919;stroke-width:1.0;"/><rect fill="#F1F1F1" height="36.2969" rx="3.5" ry="3.5" style="stroke:#181818;stroke-width:1.5;" width="74" x="428" y="1821.5"/><a href="posters.md" target="_top" title="Posters format" xlink:actuate="onRequest" xlink:href="posters.md" xlink:show="new" xlink:title="Posters format" xlink:type="simple"><text fill="#0000FF" font-family="sans-serif" font-size="14" lengthAdjust="spacing" text-decoration="underline" textLength="54" x="438" y="1844.4951">Posters</text></a><path d="M378,1698.9063 L388,1698.9063 C403,1698.9063 403,1839.6484 418,1839.6484 L428,1839.6484 " fill="none" style="stroke:#191919;stroke-width:1.0;"/><rect fill="#F1F1F1" height="36.2969" rx="3.5" ry="3.5" style="stroke:#181818;stroke-width:1.5;" width="62" x="428" y="1877.7969"/><a href="prints.md" target="_top" title="Prints format" xlink:actuate="onRequest" xlink:href="prints.md" xlink:show="new" xlink:title="Prints format" xlink:type="simple"><text fill="#0000FF" font-family="sans-serif" font-size="14" lengthAdjust="spacing" text-decoration="underline" textLength="42" x="438" y="1900.792">Prints</text></a><path d="M378,1698.9063 L388,1698.9063 C403,1698.9063 403,1895.9453 418,1895.9453 L428,1895.9453 " fill="none" style="stroke:#191919;stroke-width:1.0;"/><rect fill="#F1F1F1" height="36.2969" rx="3.5" ry="3.5" style="stroke:#181818;stroke-width:1.5;" width="62" x="428" y="1934.0938"/><a href="slides.md" target="_top" title="Slides format" xlink:actuate="onRequest" xlink:href="slides.md" xlink:show="new" xlink:title="Slides format" xlink:type="simple"><text fill="#0000FF" font-family="sans-serif" font-size="14" lengthAdjust="spacing" text-decoration="underline" textLength="42" x="438" y="1957.0889">Slides</text></a><path d="M378,1698.9063 L388,1698.9063 C403,1698.9063 403,1952.2422 418,1952.2422 L428,1952.2422 " fill="none" style="stroke:#191919;stroke-width:1.0;"/><path d="M214,1586.3125 L224,1586.3125 C239,1586.3125 239,1698.9063 254,1698.9063 L264,1698.9063 " fill="none" style="stroke:#191919;stroke-width:1.0;"/><path d="M65,995.1953 L75,995.1953 C90,995.1953 90,1586.3125 105,1586.3125 L115,1586.3125 " fill="none" style="stroke:#191919;stroke-width:1.0;"/><!--MD5=[1912845b41ffa9772075674b0b5b8013]
@startmindmap
!theme mars
* LUX  
** HumanMadeObject 
*** Objects 
**** [[globes.md{Globes format} Globes]]
**** [[kits.md{Kits format} Kits]]
**** [[models.md{Models format} Models]] 
**** [[realia.md{Realia format} Realia]] 
**** [[toysandgames.md{Toys and Games format} Toys and Games]] 
** LinguisticObject 
*** Audio Works 
**** [[music.md{Music format} Music]] 
**** [[sound.md{Sound format} Sound]] 
*** Datasets 
**** [[dataandfiles.md{Data and Files format} Data and Files]] 
***** [[geospatialdata.md{Geospatial Data format} Geospatial Data]] 
***** [[imagedata.md{Image Data format} Image Data]] 
***** [[textualdata.md{Textual Data format} Textual Data]]
*** Moving Images 
**** [[motionpictures.md{Motion Pictures format} Motion Pictures]] 
*** Scores and Notation 
**** [[notatedmovement.md{Notated Movement format} Notated Movement]]
**** [[notatedmusic.md{Notated Music format} Notated Music]] 
*** Software and Electronic Media 
**** [[softwareapplications.md{Software Applications format} Software Applications]] 
***** [[databases.md{Databases format} Databases]]
*** Textual Works 
**** [[books.md{Books format} Books]] 
***** [[atlases.md{Atlases format} Atlases]] 
**** [[broadsides.md{Broadsides format} Broadsides]] 
**** [[dissertationsandtheses.md{Dissertations and Theses format} Dissertations and Theses]]
**** [[journalsandperiodicals.md{Journals and Periodicals format} Journals and Periodicals]] 
***** [[newspapers.md{Newspapers format} Newspapers]] 
**** [[textualdata.md{Textual Data format} Textual Data]] 
** Set 
*** Collections 
**** [[archivalandmanuscriptmaterials.md{Archival and Manuscript Materials format} Archival and Manuscript Materials]] 
**** [[kits.md{Kits format} Kits]] 
** VisualItem 
*** Cartographic Works 
**** [[atlases.md{Atlases format} Atlases]] 
**** [[geospatialdata.md{Geospatial Data format} Geospatial Data]] 
**** [[globes.md{Globes format} Globes]] 
**** [[maps.md{Maps format} Maps]] 
*** Visual Works 
**** [[collages.md{Collages format} Collages]] 
**** [[drawings.md{Drawings format} Drawings]] 
**** [[imagedata.md{Image Data format} Image Data]] 
**** [[maps.md{Maps format} Maps]] 
**** [[paintings.md{Paintings format} Paintings]] 
**** [[photographs.md{Photographs format} Photographs]] 
**** [[pictures.md{Pictures format} Pictures]] 
**** [[posters.md{Posters format} Posters]]
**** [[prints.md{Prints format} Prints]]
**** [[slides.md{Slides format} Slides]]
@endmindmap

@startmindmap
skinparam BackgroundColor F9F9F9
skinparam shadowing false
skinparam RoundCorner 7
skinparam ArrowColor 191919
skinparam FontColor 191919
skinparam SequenceLifeLineBorderColor 393939
skinparam SequenceGroupHeaderFontColor 191919
skinparam SequenceGroupFontColor 393939
skinparam SequenceGroupBorderColor 393939
skinparam SequenceGroupBorderThickness 1

skinparam sequenceDivider {
    BorderColor 191919
    BorderThickness 1
    FontColor 191919
}

skinparam participant {
    BackgroundColor E55756
    BorderColor 191919
    FontColor F9F9F9
    BorderThickness 1.5
}

skinparam database {
    BackgroundColor A4DBD8
    BorderColor 191919
    FontColor 191919
}

skinparam entity {
    BackgroundColor EFBABC
    BorderColor 191919
    FontColor 191919
}

skinparam note {
    BackgroundColor e5e5e5
    BorderColor 191919
    FontColor 191919
    BorderThickness 1.5
}

skinparam actor {
    BackgroundColor 191919
    BorderColor 191919
    FontColor 191919
}

skinparam boundary {
    BackgroundColor EFBABC
    BorderColor 191919
    FontColor 191919
}

skinparam control {
    BackgroundColor EFBABC
    BorderColor 191919
    FontColor 191919
}

skinparam collections {
    BackgroundColor E55756
    BorderColor 191919
    FontColor 191919
    BorderThickness 1.5
}

skinparam queue {
    BackgroundColor E55756
    BorderColor 191919
    FontColor FFF
    BorderThickness 1.5
}
* LUX  
** HumanMadeObject 
*** Objects 
**** [[globes.md{Globes format} Globes]]
**** [[kits.md{Kits format} Kits]]
**** [[models.md{Models format} Models]] 
**** [[realia.md{Realia format} Realia]] 
**** [[toysandgames.md{Toys and Games format} Toys and Games]] 
** LinguisticObject 
*** Audio Works 
**** [[music.md{Music format} Music]] 
**** [[sound.md{Sound format} Sound]] 
*** Datasets 
**** [[dataandfiles.md{Data and Files format} Data and Files]] 
***** [[geospatialdata.md{Geospatial Data format} Geospatial Data]] 
***** [[imagedata.md{Image Data format} Image Data]] 
***** [[textualdata.md{Textual Data format} Textual Data]]
*** Moving Images 
**** [[motionpictures.md{Motion Pictures format} Motion Pictures]] 
*** Scores and Notation 
**** [[notatedmovement.md{Notated Movement format} Notated Movement]]
**** [[notatedmusic.md{Notated Music format} Notated Music]] 
*** Software and Electronic Media 
**** [[softwareapplications.md{Software Applications format} Software Applications]] 
***** [[databases.md{Databases format} Databases]]
*** Textual Works 
**** [[books.md{Books format} Books]] 
***** [[atlases.md{Atlases format} Atlases]] 
**** [[broadsides.md{Broadsides format} Broadsides]] 
**** [[dissertationsandtheses.md{Dissertations and Theses format} Dissertations and Theses]]
**** [[journalsandperiodicals.md{Journals and Periodicals format} Journals and Periodicals]] 
***** [[newspapers.md{Newspapers format} Newspapers]] 
**** [[textualdata.md{Textual Data format} Textual Data]] 
** Set 
*** Collections 
**** [[archivalandmanuscriptmaterials.md{Archival and Manuscript Materials format} Archival and Manuscript Materials]] 
**** [[kits.md{Kits format} Kits]] 
** VisualItem 
*** Cartographic Works 
**** [[atlases.md{Atlases format} Atlases]] 
**** [[geospatialdata.md{Geospatial Data format} Geospatial Data]] 
**** [[globes.md{Globes format} Globes]] 
**** [[maps.md{Maps format} Maps]] 
*** Visual Works 
**** [[collages.md{Collages format} Collages]] 
**** [[drawings.md{Drawings format} Drawings]] 
**** [[imagedata.md{Image Data format} Image Data]] 
**** [[maps.md{Maps format} Maps]] 
**** [[paintings.md{Paintings format} Paintings]] 
**** [[photographs.md{Photographs format} Photographs]] 
**** [[pictures.md{Pictures format} Pictures]] 
**** [[posters.md{Posters format} Posters]]
**** [[prints.md{Prints format} Prints]]
**** [[slides.md{Slides format} Slides]]
@endmindmap

PlantUML version 1.2022.7beta2(Unknown compile time)
(GPL source distribution)
Java Runtime: Java(TM) SE Runtime Environment
JVM: Java HotSpot(TM) 64-Bit Server VM
Default Encoding: UTF-8
Language: en
Country: US
--></g></svg>